<svg width="16" height="16" viewBox="0 0 16 16" fill="none" xmlns="http://www.w3.org/2000/svg">
<path opacity="0.4" fill-rule="evenodd" clip-rule="evenodd" d="M6 11.3335C6 11.7017 6.29848 12.0002 6.66667 12.0002C7.03486 12.0002 7.33333 11.7017 7.33333 11.3335V8.00016C7.33333 7.63197 7.03486 7.3335 6.66667 7.3335C6.29848 7.3335 6 7.63197 6 8.00016V11.3335ZM8.66667 11.3335C8.66667 11.7017 8.96514 12.0002 9.33333 12.0002C9.70152 12.0002 10 11.7017 10 11.3335V8.00016C10 7.63197 9.70152 7.3335 9.33333 7.3335C8.96514 7.3335 8.66667 7.63197 8.66667 8.00016V11.3335Z" fill="#756457"/>
<path fill-rule="evenodd" clip-rule="evenodd" d="M4.66732 3.3335C4.66732 2.22893 5.56275 1.3335 6.66732 1.3335H9.33399C10.4386 1.3335 11.334 2.22893 11.334 3.3335V4.00016H14.0007C14.3688 4.00016 14.6673 4.29864 14.6673 4.66683C14.6673 5.03502 14.3688 5.3335 14.0007 5.3335L2.00065 5.3335C1.63246 5.3335 1.33398 5.03502 1.33398 4.66683C1.33398 4.29864 1.63246 4.00016 2.00065 4.00016H4.66732V3.3335ZM6.00065 4.00016L10.0007 4.00016V3.3335C10.0007 2.96531 9.70218 2.66683 9.33399 2.66683H6.66732C6.29913 2.66683 6.00065 2.96531 6.00065 3.3335V4.00016ZM4.0009 6.66685C4.0009 6.29866 3.70242 6.00018 3.33423 6.00018C2.96604 6.00018 2.66756 6.29866 2.66756 6.66685V12.6669C2.66756 13.7714 3.56299 14.6669 4.66756 14.6669H11.3342C12.4388 14.6669 13.3342 13.7714 13.3342 12.6669V6.66685C13.3342 6.29866 13.0358 6.00018 12.6676 6.00018C12.2994 6.00018 12.0009 6.29866 12.0009 6.66685V12.6669C12.0009 13.035 11.7024 13.3335 11.3342 13.3335H4.66756C4.29937 13.3335 4.0009 13.035 4.0009 12.6669V6.66685Z" fill="#756457"/>
</svg>
