<svg width="16" height="16" viewBox="0 0 16 16" fill="none" xmlns="http://www.w3.org/2000/svg">
<path fill-rule="evenodd" clip-rule="evenodd" d="M2.66665 7.99998C2.66665 5.05446 5.05446 2.66665 7.99998 2.66665C9.63254 2.66665 11.0941 3.39974 12.0732 4.55681L11.4421 4.504C11.0752 4.4733 10.7528 4.74584 10.7221 5.11275C10.6914 5.47966 10.964 5.80198 11.3309 5.83269L13.3239 5.99947C13.6908 6.03017 14.0132 5.75762 14.0439 5.39072L14.2106 3.39768C14.2413 3.03077 13.9688 2.70845 13.6019 2.67774C13.235 2.64704 12.9127 2.91959 12.882 3.2865L12.8686 3.44582C11.6527 2.14654 9.9214 1.33331 7.99998 1.33331C4.31808 1.33331 1.33331 4.31808 1.33331 7.99998C1.33331 8.36817 1.63179 8.66665 1.99998 8.66665C2.36817 8.66665 2.66665 8.36817 2.66665 7.99998ZM14.6666 7.99998C14.6666 7.63179 14.3682 7.33331 14 7.33331C13.6318 7.33331 13.3333 7.63179 13.3333 7.99998C13.3333 10.9455 10.9455 13.3333 7.99998 13.3333C6.64768 13.3333 5.41271 12.8303 4.47211 12H4.66661C5.0348 12 5.33327 11.7015 5.33327 11.3333C5.33327 10.9651 5.0348 10.6667 4.66661 10.6667H3.02071C3.0134 10.6665 3.00608 10.6665 2.99876 10.6667H2.66661C2.29842 10.6667 1.99994 10.9651 1.99994 11.3333V13.3333C1.99994 13.7015 2.29842 14 2.66661 14C3.0348 14 3.33327 13.7015 3.33327 13.3333V12.7608C4.53526 13.9391 6.18257 14.6666 7.99998 14.6666C11.6819 14.6666 14.6666 11.6819 14.6666 7.99998Z" fill="#756457"/>
</svg>
